<?xml version="1.0" encoding="UTF-8" standalone="no"?>
<!DOCTYPE svg PUBLIC "-//W3C//DTD SVG 1.1//EN"
 "http://www.w3.org/Graphics/SVG/1.1/DTD/svg11.dtd">
<!-- Generated by graphviz version 7.0.2 (20221119.0110)
 -->
<!-- Title: tree Pages: 1 -->
<svg width="4059pt" height="1094pt"
 viewBox="0.00 0.00 4058.93 1094.42" xmlns="http://www.w3.org/2000/svg" xmlns:xlink="http://www.w3.org/1999/xlink">
<g id="graph0" class="graph" transform="scale(1 1) rotate(0) translate(4 1090.42)">
<title>tree</title>
<polygon fill="white" stroke="none" points="-4,4 -4,-1090.42 4054.93,-1090.42 4054.93,4 -4,4"/>
<!-- 59584923&#45;6915&#45;11ed&#45;9a49&#45;3c7c3fba5d6f -->
<g id="node1" class="node">
<title>59584923&#45;6915&#45;11ed&#45;9a49&#45;3c7c3fba5d6f</title>
<ellipse fill="none" stroke="black" cx="3132.69" cy="-992.17" rx="94.48" ry="94.48"/>
<text text-anchor="middle" x="3132.69" y="-988.47" font-family="Times New Roman,serif" font-size="14.00">3460350979187219080</text>
</g>
<!-- 59584924&#45;6915&#45;11ed&#45;bb6b&#45;3c7c3fba5d6f -->
<g id="node2" class="node">
<title>59584924&#45;6915&#45;11ed&#45;bb6b&#45;3c7c3fba5d6f</title>
<ellipse fill="none" stroke="black" cx="1956.69" cy="-767.69" rx="94.48" ry="94.48"/>
<text text-anchor="middle" x="1956.69" y="-763.99" font-family="Times New Roman,serif" font-size="14.00">2451544662656227976</text>
</g>
<!-- 59584923&#45;6915&#45;11ed&#45;9a49&#45;3c7c3fba5d6f&#45;&gt;59584924&#45;6915&#45;11ed&#45;bb6b&#45;3c7c3fba5d6f -->
<g id="edge1" class="edge">
<title>59584923&#45;6915&#45;11ed&#45;9a49&#45;3c7c3fba5d6f&#45;&gt;59584924&#45;6915&#45;11ed&#45;bb6b&#45;3c7c3fba5d6f</title>
<path fill="none" stroke="black" d="M3039.92,-973.62C2823.78,-932.73 2287.84,-831.34 2060.89,-788.4"/>
<polygon fill="black" stroke="black" points="2061.62,-784.98 2051.15,-786.56 2060.32,-791.86 2061.62,-784.98"/>
</g>
<!-- 59589743&#45;6915&#45;11ed&#45;bfdd&#45;3c7c3fba5d6f -->
<g id="node3" class="node">
<title>59589743&#45;6915&#45;11ed&#45;bfdd&#45;3c7c3fba5d6f</title>
<ellipse fill="none" stroke="black" cx="3132.69" cy="-767.69" rx="94.48" ry="94.48"/>
<text text-anchor="middle" x="3132.69" y="-763.99" font-family="Times New Roman,serif" font-size="14.00">3460350979187194504</text>
</g>
<!-- 59584923&#45;6915&#45;11ed&#45;9a49&#45;3c7c3fba5d6f&#45;&gt;59589743&#45;6915&#45;11ed&#45;bfdd&#45;3c7c3fba5d6f -->
<g id="edge2" class="edge">
<title>59584923&#45;6915&#45;11ed&#45;9a49&#45;3c7c3fba5d6f&#45;&gt;59589743&#45;6915&#45;11ed&#45;bfdd&#45;3c7c3fba5d6f</title>
<path fill="none" stroke="black" d="M3132.69,-897.47C3132.69,-889.73 3132.69,-881.87 3132.69,-874.05"/>
<polygon fill="black" stroke="black" points="3136.19,-874.16 3132.69,-864.16 3129.19,-874.16 3136.19,-874.16"/>
</g>
<!-- 5958974b&#45;6915&#45;11ed&#45;b865&#45;3c7c3fba5d6f -->
<g id="node4" class="node">
<title>5958974b&#45;6915&#45;11ed&#45;b865&#45;3c7c3fba5d6f</title>
<ellipse fill="none" stroke="black" cx="3441.69" cy="-767.69" rx="94.48" ry="94.48"/>
<text text-anchor="middle" x="3441.69" y="-763.99" font-family="Times New Roman,serif" font-size="14.00">3460350979187219032</text>
</g>
<!-- 59584923&#45;6915&#45;11ed&#45;9a49&#45;3c7c3fba5d6f&#45;&gt;5958974b&#45;6915&#45;11ed&#45;b865&#45;3c7c3fba5d6f -->
<g id="edge3" class="edge">
<title>59584923&#45;6915&#45;11ed&#45;9a49&#45;3c7c3fba5d6f&#45;&gt;5958974b&#45;6915&#45;11ed&#45;b865&#45;3c7c3fba5d6f</title>
<path fill="none" stroke="black" d="M3209.07,-936.18C3253.64,-904.09 3309.98,-863.53 3356.05,-830.36"/>
<polygon fill="black" stroke="black" points="3357.82,-833.39 3363.89,-824.71 3353.73,-827.71 3357.82,-833.39"/>
</g>
<!-- 59584925&#45;6915&#45;11ed&#45;a3b7&#45;3c7c3fba5d6f -->
<g id="node5" class="node">
<title>59584925&#45;6915&#45;11ed&#45;a3b7&#45;3c7c3fba5d6f</title>
<ellipse fill="none" stroke="black" cx="589.69" cy="-543.21" rx="94.48" ry="94.48"/>
<text text-anchor="middle" x="589.69" y="-539.51" font-family="Times New Roman,serif" font-size="14.00">1298623158049381000</text>
</g>
<!-- 59584924&#45;6915&#45;11ed&#45;bb6b&#45;3c7c3fba5d6f&#45;&gt;59584925&#45;6915&#45;11ed&#45;a3b7&#45;3c7c3fba5d6f -->
<g id="edge4" class="edge">
<title>59584924&#45;6915&#45;11ed&#45;bb6b&#45;3c7c3fba5d6f&#45;&gt;59584925&#45;6915&#45;11ed&#45;a3b7&#45;3c7c3fba5d6f</title>
<path fill="none" stroke="black" d="M1863.27,-751.49C1617.22,-711.44 952.55,-603.26 694.3,-561.23"/>
<polygon fill="black" stroke="black" points="694.98,-557.8 684.55,-559.65 693.86,-564.71 694.98,-557.8"/>
</g>
<!-- 5958492d&#45;6915&#45;11ed&#45;9e07&#45;3c7c3fba5d6f -->
<g id="node6" class="node">
<title>5958492d&#45;6915&#45;11ed&#45;9e07&#45;3c7c3fba5d6f</title>
<ellipse fill="none" stroke="black" cx="1601.69" cy="-543.21" rx="94.48" ry="94.48"/>
<text text-anchor="middle" x="1601.69" y="-539.51" font-family="Times New Roman,serif" font-size="14.00">2451544662656195208</text>
</g>
<!-- 59584924&#45;6915&#45;11ed&#45;bb6b&#45;3c7c3fba5d6f&#45;&gt;5958492d&#45;6915&#45;11ed&#45;9e07&#45;3c7c3fba5d6f -->
<g id="edge5" class="edge">
<title>59584924&#45;6915&#45;11ed&#45;bb6b&#45;3c7c3fba5d6f&#45;&gt;5958492d&#45;6915&#45;11ed&#45;9e07&#45;3c7c3fba5d6f</title>
<path fill="none" stroke="black" d="M1877.02,-716.76C1821.95,-682.25 1748.6,-636.28 1691.46,-600.46"/>
<polygon fill="black" stroke="black" points="1693.32,-597.5 1682.99,-595.16 1689.61,-603.44 1693.32,-597.5"/>
</g>
<!-- 59587031&#45;6915&#45;11ed&#45;89d8&#45;3c7c3fba5d6f -->
<g id="node7" class="node">
<title>59587031&#45;6915&#45;11ed&#45;89d8&#45;3c7c3fba5d6f</title>
<ellipse fill="none" stroke="black" cx="2261.69" cy="-543.21" rx="94.48" ry="94.48"/>
<text text-anchor="middle" x="2261.69" y="-539.51" font-family="Times New Roman,serif" font-size="14.00">2451544662656227912</text>
</g>
<!-- 59584924&#45;6915&#45;11ed&#45;bb6b&#45;3c7c3fba5d6f&#45;&gt;59587031&#45;6915&#45;11ed&#45;89d8&#45;3c7c3fba5d6f -->
<g id="edge6" class="edge">
<title>59584924&#45;6915&#45;11ed&#45;bb6b&#45;3c7c3fba5d6f&#45;&gt;59587031&#45;6915&#45;11ed&#45;89d8&#45;3c7c3fba5d6f</title>
<path fill="none" stroke="black" d="M2032.87,-711.12C2076.53,-679.27 2131.44,-639.22 2176.52,-606.34"/>
<polygon fill="black" stroke="black" points="2178.45,-609.26 2184.47,-600.54 2174.33,-603.6 2178.45,-609.26"/>
</g>
<!-- 59589744&#45;6915&#45;11ed&#45;9c14&#45;3c7c3fba5d6f -->
<g id="node8" class="node">
<title>59589744&#45;6915&#45;11ed&#45;9c14&#45;3c7c3fba5d6f</title>
<ellipse fill="none" stroke="black" cx="3132.69" cy="-543.21" rx="94.48" ry="94.48"/>
<text text-anchor="middle" x="3132.69" y="-539.51" font-family="Times New Roman,serif" font-size="14.00">2307429474580347528</text>
</g>
<!-- 59589743&#45;6915&#45;11ed&#45;bfdd&#45;3c7c3fba5d6f&#45;&gt;59589744&#45;6915&#45;11ed&#45;9c14&#45;3c7c3fba5d6f -->
<g id="edge7" class="edge">
<title>59589743&#45;6915&#45;11ed&#45;bfdd&#45;3c7c3fba5d6f&#45;&gt;59589744&#45;6915&#45;11ed&#45;9c14&#45;3c7c3fba5d6f</title>
<path fill="none" stroke="black" d="M3132.69,-672.98C3132.69,-665.24 3132.69,-657.39 3132.69,-649.57"/>
<polygon fill="black" stroke="black" points="3136.19,-649.68 3132.69,-639.68 3129.19,-649.68 3136.19,-649.68"/>
</g>
<!-- 5958974c&#45;6915&#45;11ed&#45;a370&#45;3c7c3fba5d6f -->
<g id="node9" class="node">
<title>5958974c&#45;6915&#45;11ed&#45;a370&#45;3c7c3fba5d6f</title>
<ellipse fill="none" stroke="black" cx="3647.69" cy="-543.21" rx="94.48" ry="94.48"/>
<text text-anchor="middle" x="3647.69" y="-539.51" font-family="Times New Roman,serif" font-size="14.00">2307429474580372056</text>
</g>
<!-- 5958974b&#45;6915&#45;11ed&#45;b865&#45;3c7c3fba5d6f&#45;&gt;5958974c&#45;6915&#45;11ed&#45;a370&#45;3c7c3fba5d6f -->
<g id="edge8" class="edge">
<title>5958974b&#45;6915&#45;11ed&#45;b865&#45;3c7c3fba5d6f&#45;&gt;5958974c&#45;6915&#45;11ed&#45;a370&#45;3c7c3fba5d6f</title>
<path fill="none" stroke="black" d="M3505.46,-697.82C3527.86,-673.63 3553.17,-646.29 3576.17,-621.46"/>
<polygon fill="black" stroke="black" points="3578.62,-623.96 3582.84,-614.25 3573.48,-619.21 3578.62,-623.96"/>
</g>
<!-- 59584926&#45;6915&#45;11ed&#45;b829&#45;3c7c3fba5d6f -->
<g id="node10" class="node">
<title>59584926&#45;6915&#45;11ed&#45;b829&#45;3c7c3fba5d6f</title>
<ellipse fill="none" stroke="black" cx="284.69" cy="-318.72" rx="89.88" ry="89.88"/>
<text text-anchor="middle" x="284.69" y="-315.02" font-family="Times New Roman,serif" font-size="14.00">722162405745957512</text>
</g>
<!-- 59584925&#45;6915&#45;11ed&#45;a3b7&#45;3c7c3fba5d6f&#45;&gt;59584926&#45;6915&#45;11ed&#45;b829&#45;3c7c3fba5d6f -->
<g id="edge9" class="edge">
<title>59584925&#45;6915&#45;11ed&#45;a3b7&#45;3c7c3fba5d6f&#45;&gt;59584926&#45;6915&#45;11ed&#45;b829&#45;3c7c3fba5d6f</title>
<path fill="none" stroke="black" d="M507.52,-495.69C468.77,-472.51 422.61,-443.04 383.69,-412.97 374.63,-405.96 365.45,-398.27 356.52,-390.39"/>
<polygon fill="black" stroke="black" points="358.96,-387.88 349.17,-383.82 354.29,-393.09 358.96,-387.88"/>
</g>
<!-- 59584929&#45;6915&#45;11ed&#45;9e00&#45;3c7c3fba5d6f -->
<g id="node11" class="node">
<title>59584929&#45;6915&#45;11ed&#45;9e00&#45;3c7c3fba5d6f</title>
<ellipse fill="none" stroke="black" cx="486.69" cy="-318.72" rx="94.48" ry="94.48"/>
<text text-anchor="middle" x="486.69" y="-315.02" font-family="Times New Roman,serif" font-size="14.00">1298623158049356424</text>
</g>
<!-- 59584925&#45;6915&#45;11ed&#45;a3b7&#45;3c7c3fba5d6f&#45;&gt;59584929&#45;6915&#45;11ed&#45;9e00&#45;3c7c3fba5d6f -->
<g id="edge10" class="edge">
<title>59584925&#45;6915&#45;11ed&#45;a3b7&#45;3c7c3fba5d6f&#45;&gt;59584929&#45;6915&#45;11ed&#45;9e00&#45;3c7c3fba5d6f</title>
<path fill="none" stroke="black" d="M550.31,-457.14C543.91,-443.32 537.25,-428.93 530.75,-414.89"/>
<polygon fill="black" stroke="black" points="534.06,-413.72 526.69,-406.11 527.71,-416.66 534.06,-413.72"/>
</g>
<!-- 5958492b&#45;6915&#45;11ed&#45;be93&#45;3c7c3fba5d6f -->
<g id="node12" class="node">
<title>5958492b&#45;6915&#45;11ed&#45;be93&#45;3c7c3fba5d6f</title>
<ellipse fill="none" stroke="black" cx="692.69" cy="-318.72" rx="94.48" ry="94.48"/>
<text text-anchor="middle" x="692.69" y="-315.02" font-family="Times New Roman,serif" font-size="14.00">1298623158049380952</text>
</g>
<!-- 59584925&#45;6915&#45;11ed&#45;a3b7&#45;3c7c3fba5d6f&#45;&gt;5958492b&#45;6915&#45;11ed&#45;be93&#45;3c7c3fba5d6f -->
<g id="edge11" class="edge">
<title>59584925&#45;6915&#45;11ed&#45;a3b7&#45;3c7c3fba5d6f&#45;&gt;5958492b&#45;6915&#45;11ed&#45;be93&#45;3c7c3fba5d6f</title>
<path fill="none" stroke="black" d="M629.07,-457.14C635.47,-443.32 642.13,-428.93 648.63,-414.89"/>
<polygon fill="black" stroke="black" points="651.67,-416.66 652.7,-406.11 645.32,-413.72 651.67,-416.66"/>
</g>
<!-- 5958492e&#45;6915&#45;11ed&#45;a43f&#45;3c7c3fba5d6f -->
<g id="node13" class="node">
<title>5958492e&#45;6915&#45;11ed&#45;a43f&#45;3c7c3fba5d6f</title>
<ellipse fill="none" stroke="black" cx="1189.69" cy="-318.72" rx="94.48" ry="94.48"/>
<text text-anchor="middle" x="1189.69" y="-315.02" font-family="Times New Roman,serif" font-size="14.00">1586853534201059976</text>
</g>
<!-- 5958492d&#45;6915&#45;11ed&#45;9e07&#45;3c7c3fba5d6f&#45;&gt;5958492e&#45;6915&#45;11ed&#45;a43f&#45;3c7c3fba5d6f -->
<g id="edge12" class="edge">
<title>5958492d&#45;6915&#45;11ed&#45;9e07&#45;3c7c3fba5d6f&#45;&gt;5958492e&#45;6915&#45;11ed&#45;a43f&#45;3c7c3fba5d6f</title>
<path fill="none" stroke="black" d="M1518.81,-497.45C1450.48,-460.55 1353.58,-408.23 1282.63,-369.91"/>
<polygon fill="black" stroke="black" points="1284.58,-366.99 1274.12,-365.32 1281.26,-373.15 1284.58,-366.99"/>
</g>
<!-- 5958702e&#45;6915&#45;11ed&#45;a59e&#45;3c7c3fba5d6f -->
<g id="node14" class="node">
<title>5958702e&#45;6915&#45;11ed&#45;a59e&#45;3c7c3fba5d6f</title>
<ellipse fill="none" stroke="black" cx="1601.69" cy="-318.72" rx="94.48" ry="94.48"/>
<text text-anchor="middle" x="1601.69" y="-315.02" font-family="Times New Roman,serif" font-size="14.00">2451544662656178824</text>
</g>
<!-- 5958492d&#45;6915&#45;11ed&#45;9e07&#45;3c7c3fba5d6f&#45;&gt;5958702e&#45;6915&#45;11ed&#45;a59e&#45;3c7c3fba5d6f -->
<g id="edge13" class="edge">
<title>5958492d&#45;6915&#45;11ed&#45;9e07&#45;3c7c3fba5d6f&#45;&gt;5958702e&#45;6915&#45;11ed&#45;a59e&#45;3c7c3fba5d6f</title>
<path fill="none" stroke="black" d="M1601.69,-448.5C1601.69,-440.76 1601.69,-432.9 1601.69,-425.09"/>
<polygon fill="black" stroke="black" points="1605.19,-425.19 1601.69,-415.19 1598.19,-425.19 1605.19,-425.19"/>
</g>
<!-- 59587032&#45;6915&#45;11ed&#45;acb6&#45;3c7c3fba5d6f -->
<g id="node15" class="node">
<title>59587032&#45;6915&#45;11ed&#45;acb6&#45;3c7c3fba5d6f</title>
<ellipse fill="none" stroke="black" cx="2133.69" cy="-318.72" rx="94.48" ry="94.48"/>
<text text-anchor="middle" x="2133.69" y="-315.02" font-family="Times New Roman,serif" font-size="14.00">1586853534201092680</text>
</g>
<!-- 59587031&#45;6915&#45;11ed&#45;89d8&#45;3c7c3fba5d6f&#45;&gt;59587032&#45;6915&#45;11ed&#45;acb6&#45;3c7c3fba5d6f -->
<g id="edge14" class="edge">
<title>59587031&#45;6915&#45;11ed&#45;89d8&#45;3c7c3fba5d6f&#45;&gt;59587032&#45;6915&#45;11ed&#45;acb6&#45;3c7c3fba5d6f</title>
<path fill="none" stroke="black" d="M2214.94,-460.94C2205.56,-444.65 2195.66,-427.43 2186.11,-410.83"/>
<polygon fill="black" stroke="black" points="2189.31,-409.38 2181.29,-402.45 2183.24,-412.87 2189.31,-409.38"/>
</g>
<!-- 59587036&#45;6915&#45;11ed&#45;ba9e&#45;3c7c3fba5d6f -->
<g id="node16" class="node">
<title>59587036&#45;6915&#45;11ed&#45;ba9e&#45;3c7c3fba5d6f</title>
<ellipse fill="none" stroke="black" cx="2364.69" cy="-318.72" rx="94.48" ry="94.48"/>
<text text-anchor="middle" x="2364.69" y="-315.02" font-family="Times New Roman,serif" font-size="14.00">2451544662656203336</text>
</g>
<!-- 59587031&#45;6915&#45;11ed&#45;89d8&#45;3c7c3fba5d6f&#45;&gt;59587036&#45;6915&#45;11ed&#45;ba9e&#45;3c7c3fba5d6f -->
<g id="edge15" class="edge">
<title>59587031&#45;6915&#45;11ed&#45;89d8&#45;3c7c3fba5d6f&#45;&gt;59587036&#45;6915&#45;11ed&#45;ba9e&#45;3c7c3fba5d6f</title>
<path fill="none" stroke="black" d="M2301.07,-457.14C2307.47,-443.32 2314.13,-428.93 2320.63,-414.89"/>
<polygon fill="black" stroke="black" points="2323.67,-416.66 2324.7,-406.11 2317.32,-413.72 2323.67,-416.66"/>
</g>
<!-- 59587038&#45;6915&#45;11ed&#45;91ee&#45;3c7c3fba5d6f -->
<g id="node17" class="node">
<title>59587038&#45;6915&#45;11ed&#45;91ee&#45;3c7c3fba5d6f</title>
<ellipse fill="none" stroke="black" cx="2670.69" cy="-318.72" rx="94.48" ry="94.48"/>
<text text-anchor="middle" x="2670.69" y="-315.02" font-family="Times New Roman,serif" font-size="14.00">2451544662656227880</text>
</g>
<!-- 59587031&#45;6915&#45;11ed&#45;89d8&#45;3c7c3fba5d6f&#45;&gt;59587038&#45;6915&#45;11ed&#45;91ee&#45;3c7c3fba5d6f -->
<g id="edge16" class="edge">
<title>59587031&#45;6915&#45;11ed&#45;89d8&#45;3c7c3fba5d6f&#45;&gt;59587038&#45;6915&#45;11ed&#45;91ee&#45;3c7c3fba5d6f</title>
<path fill="none" stroke="black" d="M2344.46,-497.19C2412.12,-460.38 2507.73,-408.37 2577.96,-370.17"/>
<polygon fill="black" stroke="black" points="2579.26,-373.45 2586.37,-365.59 2575.91,-367.3 2579.26,-373.45"/>
</g>
<!-- 59589745&#45;6915&#45;11ed&#45;9ae7&#45;3c7c3fba5d6f -->
<g id="node18" class="node">
<title>59589745&#45;6915&#45;11ed&#45;9ae7&#45;3c7c3fba5d6f</title>
<ellipse fill="none" stroke="black" cx="2926.69" cy="-318.72" rx="94.48" ry="94.48"/>
<text text-anchor="middle" x="2926.69" y="-315.02" font-family="Times New Roman,serif" font-size="14.00">1442738346125212296</text>
</g>
<!-- 59589744&#45;6915&#45;11ed&#45;9c14&#45;3c7c3fba5d6f&#45;&gt;59589745&#45;6915&#45;11ed&#45;9ae7&#45;3c7c3fba5d6f -->
<g id="edge17" class="edge">
<title>59589744&#45;6915&#45;11ed&#45;9c14&#45;3c7c3fba5d6f&#45;&gt;59589745&#45;6915&#45;11ed&#45;9ae7&#45;3c7c3fba5d6f</title>
<path fill="none" stroke="black" d="M3068.92,-473.34C3046.52,-449.14 3021.21,-421.81 2998.22,-396.97"/>
<polygon fill="black" stroke="black" points="3000.9,-394.72 2991.54,-389.76 2995.77,-399.48 3000.9,-394.72"/>
</g>
<!-- 59589747&#45;6915&#45;11ed&#45;bc2a&#45;3c7c3fba5d6f -->
<g id="node19" class="node">
<title>59589747&#45;6915&#45;11ed&#45;bc2a&#45;3c7c3fba5d6f</title>
<ellipse fill="none" stroke="black" cx="3132.69" cy="-318.72" rx="94.48" ry="94.48"/>
<text text-anchor="middle" x="3132.69" y="-315.02" font-family="Times New Roman,serif" font-size="14.00">2307429474580331144</text>
</g>
<!-- 59589744&#45;6915&#45;11ed&#45;9c14&#45;3c7c3fba5d6f&#45;&gt;59589747&#45;6915&#45;11ed&#45;bc2a&#45;3c7c3fba5d6f -->
<g id="edge18" class="edge">
<title>59589744&#45;6915&#45;11ed&#45;9c14&#45;3c7c3fba5d6f&#45;&gt;59589747&#45;6915&#45;11ed&#45;bc2a&#45;3c7c3fba5d6f</title>
<path fill="none" stroke="black" d="M3132.69,-448.5C3132.69,-440.76 3132.69,-432.9 3132.69,-425.09"/>
<polygon fill="black" stroke="black" points="3136.19,-425.19 3132.69,-415.19 3129.19,-425.19 3136.19,-425.19"/>
</g>
<!-- 59589749&#45;6915&#45;11ed&#45;8ac3&#45;3c7c3fba5d6f -->
<g id="node20" class="node">
<title>59589749&#45;6915&#45;11ed&#45;8ac3&#45;3c7c3fba5d6f</title>
<ellipse fill="none" stroke="black" cx="3338.69" cy="-318.72" rx="94.48" ry="94.48"/>
<text text-anchor="middle" x="3338.69" y="-315.02" font-family="Times New Roman,serif" font-size="14.00">2307429474580347480</text>
</g>
<!-- 59589744&#45;6915&#45;11ed&#45;9c14&#45;3c7c3fba5d6f&#45;&gt;59589749&#45;6915&#45;11ed&#45;8ac3&#45;3c7c3fba5d6f -->
<g id="edge19" class="edge">
<title>59589744&#45;6915&#45;11ed&#45;9c14&#45;3c7c3fba5d6f&#45;&gt;59589749&#45;6915&#45;11ed&#45;8ac3&#45;3c7c3fba5d6f</title>
<path fill="none" stroke="black" d="M3196.46,-473.34C3218.86,-449.14 3244.17,-421.81 3267.17,-396.97"/>
<polygon fill="black" stroke="black" points="3269.62,-399.48 3273.84,-389.76 3264.48,-394.72 3269.62,-399.48"/>
</g>
<!-- 5958974d&#45;6915&#45;11ed&#45;af2e&#45;3c7c3fba5d6f -->
<g id="node21" class="node">
<title>5958974d&#45;6915&#45;11ed&#45;af2e&#45;3c7c3fba5d6f</title>
<ellipse fill="none" stroke="black" cx="3544.69" cy="-318.72" rx="94.48" ry="94.48"/>
<text text-anchor="middle" x="3544.69" y="-315.02" font-family="Times New Roman,serif" font-size="14.00">1442738346125236824</text>
</g>
<!-- 5958974c&#45;6915&#45;11ed&#45;a370&#45;3c7c3fba5d6f&#45;&gt;5958974d&#45;6915&#45;11ed&#45;af2e&#45;3c7c3fba5d6f -->
<g id="edge20" class="edge">
<title>5958974c&#45;6915&#45;11ed&#45;a370&#45;3c7c3fba5d6f&#45;&gt;5958974d&#45;6915&#45;11ed&#45;af2e&#45;3c7c3fba5d6f</title>
<path fill="none" stroke="black" d="M3608.31,-457.14C3601.91,-443.32 3595.25,-428.93 3588.75,-414.89"/>
<polygon fill="black" stroke="black" points="3592.06,-413.72 3584.69,-406.11 3585.71,-416.66 3592.06,-413.72"/>
</g>
<!-- 5958be4f&#45;6915&#45;11ed&#45;a9f6&#45;3c7c3fba5d6f -->
<g id="node22" class="node">
<title>5958be4f&#45;6915&#45;11ed&#45;a9f6&#45;3c7c3fba5d6f</title>
<ellipse fill="none" stroke="black" cx="3750.69" cy="-318.72" rx="94.48" ry="94.48"/>
<text text-anchor="middle" x="3750.69" y="-315.02" font-family="Times New Roman,serif" font-size="14.00">2307429474580347480</text>
</g>
<!-- 5958974c&#45;6915&#45;11ed&#45;a370&#45;3c7c3fba5d6f&#45;&gt;5958be4f&#45;6915&#45;11ed&#45;a9f6&#45;3c7c3fba5d6f -->
<g id="edge21" class="edge">
<title>5958974c&#45;6915&#45;11ed&#45;a370&#45;3c7c3fba5d6f&#45;&gt;5958be4f&#45;6915&#45;11ed&#45;a9f6&#45;3c7c3fba5d6f</title>
<path fill="none" stroke="black" d="M3687.07,-457.14C3693.47,-443.32 3700.13,-428.93 3706.63,-414.89"/>
<polygon fill="black" stroke="black" points="3709.67,-416.66 3710.7,-406.11 3703.32,-413.72 3709.67,-416.66"/>
</g>
<!-- 5958be51&#45;6915&#45;11ed&#45;93fe&#45;3c7c3fba5d6f -->
<g id="node23" class="node">
<title>5958be51&#45;6915&#45;11ed&#45;93fe&#45;3c7c3fba5d6f</title>
<ellipse fill="none" stroke="black" cx="3956.69" cy="-318.72" rx="94.48" ry="94.48"/>
<text text-anchor="middle" x="3956.69" y="-315.02" font-family="Times New Roman,serif" font-size="14.00">2307429474580372024</text>
</g>
<!-- 5958974c&#45;6915&#45;11ed&#45;a370&#45;3c7c3fba5d6f&#45;&gt;5958be51&#45;6915&#45;11ed&#45;93fe&#45;3c7c3fba5d6f -->
<g id="edge22" class="edge">
<title>5958974c&#45;6915&#45;11ed&#45;a370&#45;3c7c3fba5d6f&#45;&gt;5958be51&#45;6915&#45;11ed&#45;93fe&#45;3c7c3fba5d6f</title>
<path fill="none" stroke="black" d="M3729.6,-495.35C3768.29,-472.09 3814.48,-442.66 3853.69,-412.97 3862.35,-406.41 3871.14,-399.29 3879.76,-391.98"/>
<polygon fill="black" stroke="black" points="3881.85,-394.8 3887.16,-385.63 3877.29,-389.49 3881.85,-394.8"/>
</g>
<!-- 59584927&#45;6915&#45;11ed&#45;9aa5&#45;3c7c3fba5d6f -->
<g id="node24" class="node">
<title>59584927&#45;6915&#45;11ed&#45;9aa5&#45;3c7c3fba5d6f</title>
<ellipse fill="none" stroke="black" cx="89.69" cy="-94.24" rx="89.88" ry="89.88"/>
<text text-anchor="middle" x="89.69" y="-90.54" font-family="Times New Roman,serif" font-size="14.00">722162405745924744</text>
</g>
<!-- 59584926&#45;6915&#45;11ed&#45;b829&#45;3c7c3fba5d6f&#45;&gt;59584927&#45;6915&#45;11ed&#45;9aa5&#45;3c7c3fba5d6f -->
<g id="edge23" class="edge">
<title>59584926&#45;6915&#45;11ed&#45;b829&#45;3c7c3fba5d6f&#45;&gt;59584927&#45;6915&#45;11ed&#45;9aa5&#45;3c7c3fba5d6f</title>
<path fill="none" stroke="black" d="M225.66,-250.37C203.7,-225.32 178.65,-196.73 156.08,-170.98"/>
<polygon fill="black" stroke="black" points="158.75,-168.72 149.52,-163.51 153.48,-173.33 158.75,-168.72"/>
</g>
<!-- 59584928&#45;6915&#45;11ed&#45;9f0d&#45;3c7c3fba5d6f -->
<g id="node25" class="node">
<title>59584928&#45;6915&#45;11ed&#45;9f0d&#45;3c7c3fba5d6f</title>
<ellipse fill="none" stroke="black" cx="286.69" cy="-94.24" rx="89.88" ry="89.88"/>
<text text-anchor="middle" x="286.69" y="-90.54" font-family="Times New Roman,serif" font-size="14.00">722162405745957448</text>
</g>
<!-- 59584926&#45;6915&#45;11ed&#45;b829&#45;3c7c3fba5d6f&#45;&gt;59584928&#45;6915&#45;11ed&#45;9f0d&#45;3c7c3fba5d6f -->
<g id="edge24" class="edge">
<title>59584926&#45;6915&#45;11ed&#45;b829&#45;3c7c3fba5d6f&#45;&gt;59584928&#45;6915&#45;11ed&#45;9f0d&#45;3c7c3fba5d6f</title>
<path fill="none" stroke="black" d="M285.49,-228.51C285.59,-217.75 285.69,-206.69 285.79,-195.78"/>
<polygon fill="black" stroke="black" points="289.29,-196.02 285.88,-185.99 282.29,-195.95 289.29,-196.02"/>
</g>
<!-- 5958492a&#45;6915&#45;11ed&#45;8ead&#45;3c7c3fba5d6f -->
<g id="node26" class="node">
<title>5958492a&#45;6915&#45;11ed&#45;8ead&#45;3c7c3fba5d6f</title>
<ellipse fill="none" stroke="black" cx="486.69" cy="-94.24" rx="89.88" ry="89.88"/>
<text text-anchor="middle" x="486.69" y="-90.54" font-family="Times New Roman,serif" font-size="14.00">145701653442509448</text>
</g>
<!-- 59584929&#45;6915&#45;11ed&#45;9e00&#45;3c7c3fba5d6f&#45;&gt;5958492a&#45;6915&#45;11ed&#45;8ead&#45;3c7c3fba5d6f -->
<g id="edge25" class="edge">
<title>59584929&#45;6915&#45;11ed&#45;9e00&#45;3c7c3fba5d6f&#45;&gt;5958492a&#45;6915&#45;11ed&#45;8ead&#45;3c7c3fba5d6f</title>
<path fill="none" stroke="black" d="M486.69,-224.02C486.69,-214.73 486.69,-205.28 486.69,-195.92"/>
<polygon fill="black" stroke="black" points="490.19,-196.09 486.69,-186.09 483.19,-196.09 490.19,-196.09"/>
</g>
<!-- 5958492c&#45;6915&#45;11ed&#45;92b5&#45;3c7c3fba5d6f -->
<g id="node27" class="node">
<title>5958492c&#45;6915&#45;11ed&#45;92b5&#45;3c7c3fba5d6f</title>
<ellipse fill="none" stroke="black" cx="687.69" cy="-94.24" rx="89.88" ry="89.88"/>
<text text-anchor="middle" x="687.69" y="-90.54" font-family="Times New Roman,serif" font-size="14.00">145701653442533976</text>
</g>
<!-- 5958492b&#45;6915&#45;11ed&#45;be93&#45;3c7c3fba5d6f&#45;&gt;5958492c&#45;6915&#45;11ed&#45;92b5&#45;3c7c3fba5d6f -->
<g id="edge26" class="edge">
<title>5958492b&#45;6915&#45;11ed&#45;be93&#45;3c7c3fba5d6f&#45;&gt;5958492c&#45;6915&#45;11ed&#45;92b5&#45;3c7c3fba5d6f</title>
<path fill="none" stroke="black" d="M690.59,-224.02C690.38,-214.73 690.16,-205.28 689.95,-195.92"/>
<polygon fill="black" stroke="black" points="693.46,-196.01 689.73,-186.09 686.46,-196.17 693.46,-196.01"/>
</g>
<!-- 5958702b&#45;6915&#45;11ed&#45;9c04&#45;3c7c3fba5d6f -->
<g id="node28" class="node">
<title>5958702b&#45;6915&#45;11ed&#45;9c04&#45;3c7c3fba5d6f</title>
<ellipse fill="none" stroke="black" cx="884.69" cy="-94.24" rx="89.88" ry="89.88"/>
<text text-anchor="middle" x="884.69" y="-90.54" font-family="Times New Roman,serif" font-size="14.00">433932029594213000</text>
</g>
<!-- 5958492e&#45;6915&#45;11ed&#45;a43f&#45;3c7c3fba5d6f&#45;&gt;5958702b&#45;6915&#45;11ed&#45;9c04&#45;3c7c3fba5d6f -->
<g id="edge27" class="edge">
<title>5958492e&#45;6915&#45;11ed&#45;a43f&#45;3c7c3fba5d6f&#45;&gt;5958702b&#45;6915&#45;11ed&#45;9c04&#45;3c7c3fba5d6f</title>
<path fill="none" stroke="black" d="M1107.52,-271.21C1068.77,-248.03 1022.61,-218.56 983.69,-188.48 974.63,-181.48 965.45,-173.79 956.52,-165.91"/>
<polygon fill="black" stroke="black" points="958.96,-163.4 949.17,-159.33 954.29,-168.61 958.96,-163.4"/>
</g>
<!-- 5958702c&#45;6915&#45;11ed&#45;bebb&#45;3c7c3fba5d6f -->
<g id="node29" class="node">
<title>5958702c&#45;6915&#45;11ed&#45;bebb&#45;3c7c3fba5d6f</title>
<ellipse fill="none" stroke="black" cx="1086.69" cy="-94.24" rx="94.48" ry="94.48"/>
<text text-anchor="middle" x="1086.69" y="-90.54" font-family="Times New Roman,serif" font-size="14.00">1586853534201027208</text>
</g>
<!-- 5958492e&#45;6915&#45;11ed&#45;a43f&#45;3c7c3fba5d6f&#45;&gt;5958702c&#45;6915&#45;11ed&#45;bebb&#45;3c7c3fba5d6f -->
<g id="edge28" class="edge">
<title>5958492e&#45;6915&#45;11ed&#45;a43f&#45;3c7c3fba5d6f&#45;&gt;5958702c&#45;6915&#45;11ed&#45;bebb&#45;3c7c3fba5d6f</title>
<path fill="none" stroke="black" d="M1150.31,-232.66C1143.91,-218.84 1137.25,-204.45 1130.75,-190.41"/>
<polygon fill="black" stroke="black" points="1134.06,-189.24 1126.69,-181.63 1127.71,-192.18 1134.06,-189.24"/>
</g>
<!-- 5958702d&#45;6915&#45;11ed&#45;bb1a&#45;3c7c3fba5d6f -->
<g id="node30" class="node">
<title>5958702d&#45;6915&#45;11ed&#45;bb1a&#45;3c7c3fba5d6f</title>
<ellipse fill="none" stroke="black" cx="1292.69" cy="-94.24" rx="94.48" ry="94.48"/>
<text text-anchor="middle" x="1292.69" y="-90.54" font-family="Times New Roman,serif" font-size="14.00">1586853534201059912</text>
</g>
<!-- 5958492e&#45;6915&#45;11ed&#45;a43f&#45;3c7c3fba5d6f&#45;&gt;5958702d&#45;6915&#45;11ed&#45;bb1a&#45;3c7c3fba5d6f -->
<g id="edge29" class="edge">
<title>5958492e&#45;6915&#45;11ed&#45;a43f&#45;3c7c3fba5d6f&#45;&gt;5958702d&#45;6915&#45;11ed&#45;bb1a&#45;3c7c3fba5d6f</title>
<path fill="none" stroke="black" d="M1229.07,-232.66C1235.47,-218.84 1242.13,-204.45 1248.63,-190.41"/>
<polygon fill="black" stroke="black" points="1251.67,-192.18 1252.7,-181.63 1245.32,-189.24 1251.67,-192.18"/>
</g>
<!-- 5958702f&#45;6915&#45;11ed&#45;a0ed&#45;3c7c3fba5d6f -->
<g id="node31" class="node">
<title>5958702f&#45;6915&#45;11ed&#45;a0ed&#45;3c7c3fba5d6f</title>
<ellipse fill="none" stroke="black" cx="1498.69" cy="-94.24" rx="94.48" ry="94.48"/>
<text text-anchor="middle" x="1498.69" y="-90.54" font-family="Times New Roman,serif" font-size="14.00">1298623158049331848</text>
</g>
<!-- 5958702e&#45;6915&#45;11ed&#45;a59e&#45;3c7c3fba5d6f&#45;&gt;5958702f&#45;6915&#45;11ed&#45;a0ed&#45;3c7c3fba5d6f -->
<g id="edge30" class="edge">
<title>5958702e&#45;6915&#45;11ed&#45;a59e&#45;3c7c3fba5d6f&#45;&gt;5958702f&#45;6915&#45;11ed&#45;a0ed&#45;3c7c3fba5d6f</title>
<path fill="none" stroke="black" d="M1562.31,-232.66C1555.91,-218.84 1549.25,-204.45 1542.75,-190.41"/>
<polygon fill="black" stroke="black" points="1546.06,-189.24 1538.69,-181.63 1539.71,-192.18 1546.06,-189.24"/>
</g>
<!-- 59587030&#45;6915&#45;11ed&#45;bfaa&#45;3c7c3fba5d6f -->
<g id="node32" class="node">
<title>59587030&#45;6915&#45;11ed&#45;bfaa&#45;3c7c3fba5d6f</title>
<ellipse fill="none" stroke="black" cx="1704.69" cy="-94.24" rx="94.48" ry="94.48"/>
<text text-anchor="middle" x="1704.69" y="-90.54" font-family="Times New Roman,serif" font-size="14.00">2451544662656178760</text>
</g>
<!-- 5958702e&#45;6915&#45;11ed&#45;a59e&#45;3c7c3fba5d6f&#45;&gt;59587030&#45;6915&#45;11ed&#45;bfaa&#45;3c7c3fba5d6f -->
<g id="edge31" class="edge">
<title>5958702e&#45;6915&#45;11ed&#45;a59e&#45;3c7c3fba5d6f&#45;&gt;59587030&#45;6915&#45;11ed&#45;bfaa&#45;3c7c3fba5d6f</title>
<path fill="none" stroke="black" d="M1641.07,-232.66C1647.47,-218.84 1654.13,-204.45 1660.63,-190.41"/>
<polygon fill="black" stroke="black" points="1663.67,-192.18 1664.7,-181.63 1657.32,-189.24 1663.67,-192.18"/>
</g>
<!-- 59587033&#45;6915&#45;11ed&#45;b580&#45;3c7c3fba5d6f -->
<g id="node33" class="node">
<title>59587033&#45;6915&#45;11ed&#45;b580&#45;3c7c3fba5d6f</title>
<ellipse fill="none" stroke="black" cx="1906.69" cy="-94.24" rx="89.88" ry="89.88"/>
<text text-anchor="middle" x="1906.69" y="-90.54" font-family="Times New Roman,serif" font-size="14.00">433932029594245704</text>
</g>
<!-- 59587032&#45;6915&#45;11ed&#45;acb6&#45;3c7c3fba5d6f&#45;&gt;59587033&#45;6915&#45;11ed&#45;b580&#45;3c7c3fba5d6f -->
<g id="edge32" class="edge">
<title>59587032&#45;6915&#45;11ed&#45;acb6&#45;3c7c3fba5d6f&#45;&gt;59587033&#45;6915&#45;11ed&#45;b580&#45;3c7c3fba5d6f</title>
<path fill="none" stroke="black" d="M2066.51,-251.88C2038.9,-224.82 2006.88,-193.44 1978.79,-165.9"/>
<polygon fill="black" stroke="black" points="1981.26,-163.43 1971.67,-158.93 1976.36,-168.43 1981.26,-163.43"/>
</g>
<!-- 59587034&#45;6915&#45;11ed&#45;ae84&#45;3c7c3fba5d6f -->
<g id="node34" class="node">
<title>59587034&#45;6915&#45;11ed&#45;ae84&#45;3c7c3fba5d6f</title>
<ellipse fill="none" stroke="black" cx="2108.69" cy="-94.24" rx="94.48" ry="94.48"/>
<text text-anchor="middle" x="2108.69" y="-90.54" font-family="Times New Roman,serif" font-size="14.00">1586853534201059912</text>
</g>
<!-- 59587032&#45;6915&#45;11ed&#45;acb6&#45;3c7c3fba5d6f&#45;&gt;59587034&#45;6915&#45;11ed&#45;ae84&#45;3c7c3fba5d6f -->
<g id="edge33" class="edge">
<title>59587032&#45;6915&#45;11ed&#45;acb6&#45;3c7c3fba5d6f&#45;&gt;59587034&#45;6915&#45;11ed&#45;ae84&#45;3c7c3fba5d6f</title>
<path fill="none" stroke="black" d="M2123.2,-224.34C2122.28,-216.16 2121.35,-207.86 2120.42,-199.6"/>
<polygon fill="black" stroke="black" points="2123.92,-199.44 2119.33,-189.89 2116.97,-200.22 2123.92,-199.44"/>
</g>
<!-- 59587035&#45;6915&#45;11ed&#45;97ed&#45;3c7c3fba5d6f -->
<g id="node35" class="node">
<title>59587035&#45;6915&#45;11ed&#45;97ed&#45;3c7c3fba5d6f</title>
<ellipse fill="none" stroke="black" cx="2314.69" cy="-94.24" rx="94.48" ry="94.48"/>
<text text-anchor="middle" x="2314.69" y="-90.54" font-family="Times New Roman,serif" font-size="14.00">1586853534201092616</text>
</g>
<!-- 59587032&#45;6915&#45;11ed&#45;acb6&#45;3c7c3fba5d6f&#45;&gt;59587035&#45;6915&#45;11ed&#45;97ed&#45;3c7c3fba5d6f -->
<g id="edge34" class="edge">
<title>59587032&#45;6915&#45;11ed&#45;acb6&#45;3c7c3fba5d6f&#45;&gt;59587035&#45;6915&#45;11ed&#45;97ed&#45;3c7c3fba5d6f</title>
<path fill="none" stroke="black" d="M2192.96,-244.88C2210.62,-223.17 2230.08,-199.24 2248.17,-177.01"/>
<polygon fill="black" stroke="black" points="2250.74,-179.39 2254.34,-169.43 2245.31,-174.98 2250.74,-179.39"/>
</g>
<!-- 59587037&#45;6915&#45;11ed&#45;a57b&#45;3c7c3fba5d6f -->
<g id="node36" class="node">
<title>59587037&#45;6915&#45;11ed&#45;a57b&#45;3c7c3fba5d6f</title>
<ellipse fill="none" stroke="black" cx="2520.69" cy="-94.24" rx="94.48" ry="94.48"/>
<text text-anchor="middle" x="2520.69" y="-90.54" font-family="Times New Roman,serif" font-size="14.00">1298623158049356360</text>
</g>
<!-- 59587036&#45;6915&#45;11ed&#45;ba9e&#45;3c7c3fba5d6f&#45;&gt;59587037&#45;6915&#45;11ed&#45;a57b&#45;3c7c3fba5d6f -->
<g id="edge35" class="edge">
<title>59587036&#45;6915&#45;11ed&#45;ba9e&#45;3c7c3fba5d6f&#45;&gt;59587037&#45;6915&#45;11ed&#45;a57b&#45;3c7c3fba5d6f</title>
<path fill="none" stroke="black" d="M2418.6,-240.85C2432.05,-221.66 2446.57,-200.95 2460.32,-181.34"/>
<polygon fill="black" stroke="black" points="2463.04,-183.56 2465.92,-173.36 2457.31,-179.54 2463.04,-183.56"/>
</g>
<!-- 59589742&#45;6915&#45;11ed&#45;9b9c&#45;3c7c3fba5d6f -->
<g id="node37" class="node">
<title>59589742&#45;6915&#45;11ed&#45;9b9c&#45;3c7c3fba5d6f</title>
<ellipse fill="none" stroke="black" cx="2726.69" cy="-94.24" rx="94.48" ry="94.48"/>
<text text-anchor="middle" x="2726.69" y="-90.54" font-family="Times New Roman,serif" font-size="14.00">1298623158049380904</text>
</g>
<!-- 59587038&#45;6915&#45;11ed&#45;91ee&#45;3c7c3fba5d6f&#45;&gt;59589742&#45;6915&#45;11ed&#45;9b9c&#45;3c7c3fba5d6f -->
<g id="edge36" class="edge">
<title>59587038&#45;6915&#45;11ed&#45;91ee&#45;3c7c3fba5d6f&#45;&gt;59589742&#45;6915&#45;11ed&#45;9b9c&#45;3c7c3fba5d6f</title>
<path fill="none" stroke="black" d="M2693.63,-226.59C2696.07,-216.91 2698.56,-207.02 2701.02,-197.23"/>
<polygon fill="black" stroke="black" points="2704.37,-198.25 2703.42,-187.7 2697.58,-196.55 2704.37,-198.25"/>
</g>
<!-- 59589746&#45;6915&#45;11ed&#45;b902&#45;3c7c3fba5d6f -->
<g id="node38" class="node">
<title>59589746&#45;6915&#45;11ed&#45;b902&#45;3c7c3fba5d6f</title>
<ellipse fill="none" stroke="black" cx="2928.69" cy="-94.24" rx="89.88" ry="89.88"/>
<text text-anchor="middle" x="2928.69" y="-90.54" font-family="Times New Roman,serif" font-size="14.00">289816841518365320</text>
</g>
<!-- 59589745&#45;6915&#45;11ed&#45;9ae7&#45;3c7c3fba5d6f&#45;&gt;59589746&#45;6915&#45;11ed&#45;b902&#45;3c7c3fba5d6f -->
<g id="edge37" class="edge">
<title>59589745&#45;6915&#45;11ed&#45;9ae7&#45;3c7c3fba5d6f&#45;&gt;59589746&#45;6915&#45;11ed&#45;b902&#45;3c7c3fba5d6f</title>
<path fill="none" stroke="black" d="M2927.53,-224.02C2927.62,-214.73 2927.7,-205.28 2927.79,-195.92"/>
<polygon fill="black" stroke="black" points="2931.29,-196.12 2927.88,-186.09 2924.29,-196.06 2931.29,-196.12"/>
</g>
<!-- 59589748&#45;6915&#45;11ed&#45;8fa1&#45;3c7c3fba5d6f -->
<g id="node39" class="node">
<title>59589748&#45;6915&#45;11ed&#45;8fa1&#45;3c7c3fba5d6f</title>
<ellipse fill="none" stroke="black" cx="3132.69" cy="-94.24" rx="94.48" ry="94.48"/>
<text text-anchor="middle" x="3132.69" y="-90.54" font-family="Times New Roman,serif" font-size="14.00">1154507969973484168</text>
</g>
<!-- 59589747&#45;6915&#45;11ed&#45;bc2a&#45;3c7c3fba5d6f&#45;&gt;59589748&#45;6915&#45;11ed&#45;8fa1&#45;3c7c3fba5d6f -->
<g id="edge38" class="edge">
<title>59589747&#45;6915&#45;11ed&#45;bc2a&#45;3c7c3fba5d6f&#45;&gt;59589748&#45;6915&#45;11ed&#45;8fa1&#45;3c7c3fba5d6f</title>
<path fill="none" stroke="black" d="M3132.69,-224.02C3132.69,-216.28 3132.69,-208.42 3132.69,-200.6"/>
<polygon fill="black" stroke="black" points="3136.19,-200.71 3132.69,-190.71 3129.19,-200.71 3136.19,-200.71"/>
</g>
<!-- 5958974a&#45;6915&#45;11ed&#45;93fa&#45;3c7c3fba5d6f -->
<g id="node40" class="node">
<title>5958974a&#45;6915&#45;11ed&#45;93fa&#45;3c7c3fba5d6f</title>
<ellipse fill="none" stroke="black" cx="3338.69" cy="-94.24" rx="94.48" ry="94.48"/>
<text text-anchor="middle" x="3338.69" y="-90.54" font-family="Times New Roman,serif" font-size="14.00">1154507969973500504</text>
</g>
<!-- 59589749&#45;6915&#45;11ed&#45;8ac3&#45;3c7c3fba5d6f&#45;&gt;5958974a&#45;6915&#45;11ed&#45;93fa&#45;3c7c3fba5d6f -->
<g id="edge39" class="edge">
<title>59589749&#45;6915&#45;11ed&#45;8ac3&#45;3c7c3fba5d6f&#45;&gt;5958974a&#45;6915&#45;11ed&#45;93fa&#45;3c7c3fba5d6f</title>
<path fill="none" stroke="black" d="M3338.69,-224.02C3338.69,-216.28 3338.69,-208.42 3338.69,-200.6"/>
<polygon fill="black" stroke="black" points="3342.19,-200.71 3338.69,-190.71 3335.19,-200.71 3342.19,-200.71"/>
</g>
<!-- 5958be4e&#45;6915&#45;11ed&#45;bafa&#45;3c7c3fba5d6f -->
<g id="node41" class="node">
<title>5958be4e&#45;6915&#45;11ed&#45;bafa&#45;3c7c3fba5d6f</title>
<ellipse fill="none" stroke="black" cx="3544.69" cy="-94.24" rx="89.88" ry="89.88"/>
<text text-anchor="middle" x="3544.69" y="-90.54" font-family="Times New Roman,serif" font-size="14.00">289816841518389848</text>
</g>
<!-- 5958974d&#45;6915&#45;11ed&#45;af2e&#45;3c7c3fba5d6f&#45;&gt;5958be4e&#45;6915&#45;11ed&#45;bafa&#45;3c7c3fba5d6f -->
<g id="edge40" class="edge">
<title>5958974d&#45;6915&#45;11ed&#45;af2e&#45;3c7c3fba5d6f&#45;&gt;5958be4e&#45;6915&#45;11ed&#45;bafa&#45;3c7c3fba5d6f</title>
<path fill="none" stroke="black" d="M3544.69,-224.02C3544.69,-214.73 3544.69,-205.28 3544.69,-195.92"/>
<polygon fill="black" stroke="black" points="3548.19,-196.09 3544.69,-186.09 3541.19,-196.09 3548.19,-196.09"/>
</g>
<!-- 5958be50&#45;6915&#45;11ed&#45;84c9&#45;3c7c3fba5d6f -->
<g id="node42" class="node">
<title>5958be50&#45;6915&#45;11ed&#45;84c9&#45;3c7c3fba5d6f</title>
<ellipse fill="none" stroke="black" cx="3750.69" cy="-94.24" rx="94.48" ry="94.48"/>
<text text-anchor="middle" x="3750.69" y="-90.54" font-family="Times New Roman,serif" font-size="14.00">1154507969973500504</text>
</g>
<!-- 5958be4f&#45;6915&#45;11ed&#45;a9f6&#45;3c7c3fba5d6f&#45;&gt;5958be50&#45;6915&#45;11ed&#45;84c9&#45;3c7c3fba5d6f -->
<g id="edge41" class="edge">
<title>5958be4f&#45;6915&#45;11ed&#45;a9f6&#45;3c7c3fba5d6f&#45;&gt;5958be50&#45;6915&#45;11ed&#45;84c9&#45;3c7c3fba5d6f</title>
<path fill="none" stroke="black" d="M3750.69,-224.02C3750.69,-216.28 3750.69,-208.42 3750.69,-200.6"/>
<polygon fill="black" stroke="black" points="3754.19,-200.71 3750.69,-190.71 3747.19,-200.71 3754.19,-200.71"/>
</g>
<!-- 5958be52&#45;6915&#45;11ed&#45;8957&#45;3c7c3fba5d6f -->
<g id="node43" class="node">
<title>5958be52&#45;6915&#45;11ed&#45;8957&#45;3c7c3fba5d6f</title>
<ellipse fill="none" stroke="black" cx="3956.69" cy="-94.24" rx="94.48" ry="94.48"/>
<text text-anchor="middle" x="3956.69" y="-90.54" font-family="Times New Roman,serif" font-size="14.00">1154507969973525048</text>
</g>
<!-- 5958be51&#45;6915&#45;11ed&#45;93fe&#45;3c7c3fba5d6f&#45;&gt;5958be52&#45;6915&#45;11ed&#45;8957&#45;3c7c3fba5d6f -->
<g id="edge42" class="edge">
<title>5958be51&#45;6915&#45;11ed&#45;93fe&#45;3c7c3fba5d6f&#45;&gt;5958be52&#45;6915&#45;11ed&#45;8957&#45;3c7c3fba5d6f</title>
<path fill="none" stroke="black" d="M3956.69,-224.02C3956.69,-216.28 3956.69,-208.42 3956.69,-200.6"/>
<polygon fill="black" stroke="black" points="3960.19,-200.71 3956.69,-190.71 3953.19,-200.71 3960.19,-200.71"/>
</g>
</g>
</svg>
